<svg width="930" height="250" viewBox="0 0 930 250" fill="none" xmlns="http://www.w3.org/2000/svg">
<path d="M111.851 69.0909C163.686 18.3428 196.095 0 297.076 0H752.788L657.97 93.3468H319.127C275.572 93.3468 259.125 92.2139 239 101C235.734 102.496 230.2 108 239 108C247.8 108 230.667 111.667 221 113.5L214 114.179C204.135 120.737 194.782 129.109 183.883 139.654L70.6898 249.906C-37.2118 249.906 1.98211 180.635 35.0667 146L111.851 69.0909Z" fill="#FF1E00"/>
<path d="M184.066 163C170.566 163 168.066 156 171.066 153L157.566 160L160.566 165H185.566L184.066 163Z" fill="#FF1E00"/>
<path d="M187.5 147C174 147 168.566 156 171.066 159L160.566 150L161.566 147L190.5 144L187.5 147Z" fill="#FF1E00"/>
<path d="M173.324 163C92.8697 163 70.109 174.594 36.1973 201.081L58.5664 250H187.036H507.066L594.566 163H173.324Z" fill="#FF1E00"/>
<path d="M252.5 108.104C178 107.107 157.749 113.288 126.248 125.129L69 147H266.361H601.689L649 108.104H252.5Z" fill="#FF1E00"/>
<path d="M523.021 249.906L772.338 0H929.192L679.285 249.906H523.021Z" fill="#FF1E00"/>
<path d="M769.505 218.725V250H764.375V218.725H769.505ZM795.095 243.61H782L779.75 250H774.395L785.6 218.68H791.54L802.745 250H797.345L795.095 243.61ZM793.655 239.425L788.57 224.89L783.44 239.425H793.655Z" fill="#FF1E00"/>
</svg>
